<svg width="199" height="521" viewBox="0 0 199 521" fill="none" xmlns="http://www.w3.org/2000/svg">
<g opacity="0.8">
<path d="M69.4439 405.56L4.55968 470.444C2.75547 472.248 2.75547 475.173 4.55968 476.977L44.2162 516.634C46.0204 518.438 48.9456 518.438 50.7498 516.634L115.634 451.75C117.438 449.946 117.438 447.02 115.634 445.216L75.9775 405.56C74.1733 403.755 71.2481 403.755 69.4439 405.56ZM7.50327 473.504C7.51803 473.481 7.53552 473.458 7.5557 473.438L72.4378 408.556C72.4583 408.536 72.4806 408.518 72.5043 408.503L60.3053 461.305L7.50327 473.504ZM42.9408 509.369L10.6174 477.045L47.6525 468.485L42.9408 509.369ZM112.624 448.196C112.774 448.346 112.774 448.589 112.624 448.74L47.7396 513.624C47.5895 513.774 47.346 513.774 47.196 513.624L46.7571 513.185L52.1026 467.545L62.5409 465.138C62.5412 465.138 62.5416 465.138 62.5419 465.138C63.3371 464.958 63.9581 464.336 64.1383 463.541C64.1383 463.541 64.1383 463.541 64.1383 463.541L66.5449 453.103L112.185 447.757L112.624 448.196ZM108.371 443.943L67.4883 448.772L76.1799 411.752L108.371 443.943Z" fill="#ED1B24" stroke="#ED1B24"/>
<path d="M128.542 303.198L60.367 275.114C58.4211 274.312 56.1939 275.24 55.3924 277.186L38.2278 318.854C37.4262 320.8 38.3538 323.027 40.2997 323.828L108.475 351.912C110.421 352.714 112.648 351.786 113.449 349.841L130.614 308.173C131.416 306.227 130.488 304 128.542 303.198ZM59.2396 278.543L126.927 306.426L84.3747 313.625L59.2396 278.543ZM43.4821 315.55L57.3277 281.939L74.9348 306.509L43.4821 315.55ZM110.127 348.453C110.083 348.561 109.96 348.612 109.852 348.568L41.6774 320.484C41.57 320.44 41.5186 320.316 41.5629 320.209L41.7347 319.792L77.1285 309.689L82.098 316.632C82.0983 316.632 82.0986 316.632 82.0989 316.633C82.5001 317.197 83.1896 317.481 83.8718 317.363C83.8723 317.363 83.8728 317.363 83.8733 317.363L92.2911 315.935L110.299 348.036L110.127 348.453ZM112.045 343.798L96.0008 315.262L125.834 310.324L112.045 343.798Z" fill="#ED1B24" stroke="#ED1B24"/>
<path d="M161.462 166.65L112.83 215.282C111.429 216.683 111.429 218.955 112.83 220.356L142.553 250.079C143.955 251.481 146.226 251.481 147.628 250.079L196.26 201.447C197.661 200.046 197.661 197.774 196.26 196.373L166.536 166.65C165.135 165.248 162.863 165.248 161.462 166.65ZM115.509 217.447L163.627 169.328L154.597 208.416L115.509 217.447ZM141.591 244.273L117.707 220.389L145.073 214.064L141.591 244.273ZM193.827 198.784C193.89 198.847 193.89 198.95 193.827 199.014L145.194 247.646C145.131 247.71 145.028 247.71 144.964 247.646L144.678 247.36L148.667 213.3L156.404 211.516C156.405 211.516 156.405 211.516 156.406 211.515C157.048 211.369 157.55 210.868 157.696 210.226C157.696 210.225 157.696 210.225 157.696 210.224L159.48 202.487L193.54 198.497L193.827 198.784ZM190.457 195.414L160.248 198.982L166.67 171.627L190.457 195.414Z" fill="#ED1B24" stroke="#ED1B24"/>
<path d="M139.61 83.5H86.3896C84.7851 83.5 83.5 84.8223 83.5 86.4339V119.566C83.5 121.178 84.7851 122.5 86.3896 122.5H139.61C141.215 122.5 142.5 121.178 142.5 119.566V86.4339C142.5 84.8223 141.215 83.5 139.61 83.5ZM113 102.93L87.0381 86.4115H138.962L113 102.93ZM86.3766 115.563V89.3707L104.513 100.908L86.3766 115.563ZM139.623 119.553C139.623 119.559 139.622 119.562 139.621 119.565C139.62 119.568 139.618 119.57 139.616 119.572C139.614 119.574 139.613 119.575 139.612 119.576L139.612 119.576C139.612 119.576 139.612 119.576 139.61 119.576H86.3896C86.3883 119.576 86.388 119.576 86.3878 119.576C86.3876 119.575 86.3873 119.575 86.3868 119.575C86.386 119.575 86.3849 119.574 86.3837 119.572C86.3817 119.57 86.3799 119.568 86.3787 119.565C86.3776 119.562 86.3766 119.559 86.3766 119.553V119.283L107.091 102.608L112.229 105.88C112.23 105.88 112.23 105.881 112.231 105.881C112.7 106.182 113.3 106.182 113.769 105.881C113.77 105.881 113.77 105.88 113.771 105.88L118.909 102.608L139.623 119.283V119.553ZM139.623 89.4817V115.567L121.441 100.959L139.623 89.4817Z" fill="#ED1B24" stroke="#ED1B24"/>
<path d="M171.694 0.975606L133.582 11.1878C132.364 11.514 131.655 12.7731 131.981 13.991L138.3 37.5723C138.626 38.7902 139.87 39.5258 141.088 39.1996L179.2 28.9875C180.417 28.6613 181.127 27.4021 180.801 26.1842L174.482 2.60296C174.156 1.38509 172.912 0.64941 171.694 0.975606ZM156.337 19.8881L135.107 13.2725L171.416 3.54369L156.337 19.8881ZM139.776 33.8419L134.912 15.6909L149.7 20.2975L139.776 33.8419ZM178.459 26.683L140.577 36.8332L140.572 36.8136L152.135 21.0949L156.351 22.4108C156.351 22.4109 156.351 22.411 156.352 22.4111C156.793 22.5503 157.274 22.4215 157.587 22.0803C157.587 22.08 157.587 22.0798 157.587 22.0795L160.58 18.8319L178.453 26.6634L178.459 26.683ZM172.814 5.61872L177.658 23.6953L162.268 16.9695L172.814 5.61872Z" fill="#ED1B24" stroke="#ED1B24"/>
</g>
</svg>
